<svg width="400" height="400" viewBox="0 0 400 400" fill="none" xmlns="http://www.w3.org/2000/svg">
<g clip-path="url(#clip0_2912_1591)">
<circle cx="200" cy="200" r="200" fill="#2D2268"/>
<path d="M77.9794 99C65.838 99 56 108.622 56 120.497V280.503C56 292.378 65.838 302 77.9794 302H322.021C334.162 302 344 292.378 344 280.503V120.497C344 108.622 334.162 99 322.021 99H77.9794ZM159.681 279.454H78.9904V256.899H136.629V234.353H102.051V211.807H159.681V279.454ZM320.939 279.454H182.742V256.899H297.887V234.353H263.652V211.807H320.939V279.454ZM240.249 211.807V234.353H182.962V211.739H206.022V211.807H240.249ZM240.319 121.546H297.949V144.092H263.371V166.638H321.01V189.193H240.319V121.546ZM159.751 121.546H193.978V121.477H217.038V144.092H159.751V121.546ZM79.0607 121.546H136.348V144.092H102.113V166.638H217.258V189.193H79.0607V121.546Z" fill="url(#paint0_linear_2912_1591)"/>
</g>
<defs>
<linearGradient id="paint0_linear_2912_1591" x1="200" y1="99" x2="200" y2="302" gradientUnits="userSpaceOnUse">
<stop stop-color="#FFD100"/>
<stop offset="1" stop-color="#F89542"/>
</linearGradient>
<clipPath id="clip0_2912_1591">
<rect width="400" height="400" fill="white"/>
</clipPath>
</defs>
</svg>
